<?xml version="1.0" standalone="no"?>
<!DOCTYPE svg PUBLIC "-//W3C//DTD SVG 20010904//EN"
 "http://www.w3.org/TR/2001/REC-SVG-20010904/DTD/svg10.dtd">
<svg version="1.0" xmlns="http://www.w3.org/2000/svg"
 width="860.000000pt" height="527.000000pt" viewBox="0 0 860.000000 527.000000"
 preserveAspectRatio="xMidYMid meet">

<g transform="translate(0.000000,527.000000) scale(0.100000,-0.100000)"
fill="#000000" stroke="none">
<path d="M4795 4439 c-186 -18 -313 -82 -392 -197 -53 -78 -80 -166 -93 -307
-13 -145 -13 -1665 0 -1810 13 -141 40 -229 93 -307 82 -120 205 -179 412
-198 148 -14 2672 -14 2820 0 207 19 330 78 412 198 53 78 80 166 93 307 13
145 13 1665 0 1810 -19 207 -78 330 -198 412 -78 53 -166 80 -307 93 -135 12
-2708 11 -2840 -1z m929 -869 c202 -65 348 -215 416 -427 38 -120 39 -192 4
-304 -68 -215 -222 -350 -484 -424 -185 -52 -420 12 -573 156 -84 78 -137 162
-173 274 -96 297 97 627 423 725 157 47 240 47 387 0z m1542 25 c75 -13 134
-105 134 -208 0 -48 -4 -62 -25 -82 -13 -14 -31 -25 -39 -25 -8 0 -41 23 -73
51 -95 83 -119 92 -264 97 -86 3 -133 0 -148 -8 -36 -19 -51 -70 -51 -171 0
-117 9 -129 91 -129 62 0 75 8 122 80 17 26 30 35 51 35 40 0 63 -35 82 -125
18 -85 14 -146 -15 -240 -22 -72 -45 -100 -78 -100 -19 0 -29 12 -55 65 -37
79 -58 95 -120 95 -73 0 -78 -9 -78 -161 0 -151 7 -172 75 -219 80 -55 54
-105 -68 -137 -88 -22 -331 -25 -419 -5 -57 13 -108 49 -108 76 0 9 21 38 46
67 25 28 51 63 57 78 8 17 13 143 15 388 3 343 2 363 -16 400 -11 21 -34 50
-51 66 -60 53 -28 103 73 116 59 7 817 4 862 -4z"/>
<path d="M5380 3352 c-55 -27 -70 -68 -70 -198 0 -160 40 -304 119 -423 51
-78 78 -95 159 -99 54 -2 73 1 100 18 55 34 65 74 60 235 -5 153 -29 246 -88
350 -69 120 -181 167 -280 117z"/>
<path d="M672 3540 c-123 -22 -164 -78 -101 -137 58 -54 59 -61 58 -315 -1
-261 8 -316 62 -394 62 -90 164 -144 325 -172 80 -14 104 -14 185 -3 145 21
220 53 302 130 90 85 106 157 107 474 0 139 4 226 11 240 6 12 26 36 45 54 40
38 42 56 10 87 -32 32 -122 50 -214 42 -159 -13 -207 -78 -107 -143 51 -34 57
-70 53 -332 -3 -216 -4 -228 -26 -263 -39 -63 -83 -83 -184 -83 -80 0 -89 2
-129 30 -70 50 -83 87 -88 250 -1 77 0 186 4 242 7 102 7 103 46 143 24 24 39
50 39 64 0 29 -37 61 -89 76 -51 15 -245 21 -309 10z"/>
<path d="M2114 3535 c-155 -34 -276 -142 -304 -273 -31 -143 93 -302 290 -372
170 -59 212 -95 180 -154 -18 -35 -60 -49 -133 -44 -97 6 -151 38 -220 130
-65 88 -95 104 -130 69 -17 -17 -22 -32 -21 -71 2 -66 39 -173 72 -208 35 -37
119 -68 240 -88 181 -30 348 5 465 98 88 70 138 193 117 292 -26 126 -112 198
-315 266 -131 44 -165 68 -165 117 0 40 42 73 92 73 61 -1 115 -28 193 -99 69
-62 95 -72 137 -50 32 17 49 69 37 115 -14 52 -50 112 -89 149 -28 27 -37 30
-88 28 -31 -1 -100 7 -154 17 -110 23 -121 23 -204 5z"/>
<path d="M3150 3530 c-305 -4 -349 -7 -372 -22 -48 -32 -47 -57 6 -103 33 -28
50 -52 57 -80 17 -66 23 -440 9 -541 -12 -83 -15 -90 -58 -136 -41 -44 -44
-51 -34 -73 7 -14 22 -29 35 -34 13 -5 207 -11 432 -12 l407 -3 19 25 c28 36
58 103 74 165 12 49 13 61 0 90 -17 41 -53 61 -83 45 -11 -6 -37 -38 -57 -70
-50 -83 -95 -104 -230 -109 -124 -5 -150 4 -164 55 -17 60 -14 194 5 221 17
24 49 28 87 11 25 -11 34 -26 57 -86 22 -59 74 -53 105 13 48 102 40 291 -15
346 -48 47 -75 32 -104 -59 -19 -56 -28 -63 -86 -63 -61 0 -70 16 -70 131 0
94 2 101 26 126 25 25 28 25 132 21 123 -5 146 -14 211 -83 51 -54 82 -57 115
-12 39 53 15 169 -46 227 -16 15 -33 19 -67 18 -25 -1 -201 -5 -391 -8z"/>
</g>
</svg>
